<svg viewBox="0 0 240 216" fill="none" xmlns="http://www.w3.org/2000/svg"><circle cx="119.83" cy="108" r="108" fill="url(#paint0_linear_788_8)"></circle><g filter="url(#filter0_d_788_8)"><path d="M102.96 21.13L99.52 20.77C69.66 18.16 41.01 33.64 26.12 60.4C19.81 72.13 16.84 85.37 17.51 98.68C18.19 111.98 22.5 124.85 29.97 135.88C30.67 136.92 35.31 143.75 37.27 145.83C42.6 151.49 49.52 155.4 57.12 157.06L182.44 166.78C183.45 166.59 184.43 166.38 185.4 166.15C192.27 164.51 198.59 161.06 203.69 156.17C219.62 143.97 226.29 122.54 219.78 102.4C211.85 82.02 192.39 69.27 171.41 70.8H165.72C155.84 43.18 131.43 23.85 102.96 21.13Z" fill="url(#paint1_linear_788_8)"></path></g><g filter="url(#filter1_d_788_8)"><path d="M166.42 91.66H110.51C109.53 91.68 108.57 91.88 107.67 92.26C106.78 92.65 105.97 93.21 105.29 93.91C104.61 94.6 104.07 95.43 103.71 96.34C103.35 97.24 103.18 98.21 103.19 99.18C103.19 103.33 106.47 106.69 110.51 106.69H166.42C170.46 106.69 173.74 103.33 173.74 99.18C173.75 98.21 173.58 97.24 173.22 96.34C172.86 95.43 172.32 94.6 171.64 93.91C170.96 93.21 170.15 92.65 169.26 92.26C168.36 91.88 167.4 91.68 166.42 91.66ZM82.47 91.66H73.13C72.15 91.68 71.19 91.88 70.3 92.27C69.4 92.65 68.59 93.21 67.92 93.91C67.24 94.61 66.7 95.43 66.35 96.34C65.99 97.24 65.81 98.21 65.83 99.18C65.83 103.33 69.09 106.69 73.13 106.69H82.47C86.5 106.69 89.77 103.33 89.77 99.18C89.79 98.21 89.61 97.24 89.25 96.34C88.89 95.43 88.36 94.6 87.68 93.91C87 93.21 86.19 92.65 85.29 92.26C84.4 91.88 83.43 91.68 82.46 91.66H82.47Z" fill="url(#paint2_linear_788_8)"></path></g><g filter="url(#filter2_d_788_8)"><path d="M170.45 137.52H69.22C64.84 137.52 61.3 141.41 61.3 146.19V187.36C61.3 192.15 64.84 196.04 69.22 196.04H170.43C174.81 196.04 178.35 192.15 178.35 187.36V146.19C178.35 141.41 174.81 137.52 170.43 137.52H170.45Z" fill="url(#paint3_linear_788_8)"></path></g><g filter="url(#filter3_d_788_8)"><rect x="82.51" y="151.64" width="75.67" height="12.11" rx="3.03" fill="url(#paint4_linear_788_8)"></rect></g><defs><filter id="filter0_d_788_8" x="0" y="10.03" width="239.67" height="181.13" filterUnits="userSpaceOnUse" color-interpolation-filters="sRGB"><feFlood flood-opacity="0" result="BackgroundImageFix"></feFlood><feColorMatrix in="SourceAlpha" type="matrix" values="0 0 0 0 0 0 0 0 0 0 0 0 0 0 0 0 0 0 127 0" result="hardAlpha"></feColorMatrix><feOffset dy="3.48"></feOffset><feGaussianBlur stdDeviation="4.35"></feGaussianBlur><feComposite in2="hardAlpha" operator="out"></feComposite><feColorMatrix type="matrix" values="0 0 0 0 0.71 0 0 0 0 0.04 0 0 0 0 0.04 0 0 0 0.4 0"></feColorMatrix><feBlend mode="normal" in2="BackgroundImageFix" result="effect1_dropShadow_788_8"></feBlend><feBlend mode="normal" in="SourceGraphic" in2="effect1_dropShadow_788_8" result="shape"></feBlend></filter><filter id="filter1_d_788_8" x="58.86" y="91.66" width="121.85" height="28.96" filterUnits="userSpaceOnUse" color-interpolation-filters="sRGB"><feFlood flood-opacity="0" result="BackgroundImageFix"></feFlood><feColorMatrix in="SourceAlpha" type="matrix" values="0 0 0 0 0 0 0 0 0 0 0 0 0 0 0 0 0 0 127 0" result="hardAlpha"></feColorMatrix><feOffset dy="3.48"></feOffset><feGaussianBlur stdDeviation="1.74"></feGaussianBlur><feComposite in2="hardAlpha" operator="out"></feComposite><feColorMatrix type="matrix" values="0 0 0 0 0 0 0 0 0 0 0 0 0 0 0 0 0 0 0.15 0"></feColorMatrix><feBlend mode="normal" in2="BackgroundImageFix" result="effect1_dropShadow_788_8"></feBlend><feBlend mode="normal" in="SourceGraphic" in2="effect1_dropShadow_788_8" result="shape"></feBlend></filter><filter id="filter2_d_788_8" x="54.34" y="137.52" width="130.98" height="72.46" filterUnits="userSpaceOnUse" color-interpolation-filters="sRGB"><feFlood flood-opacity="0" result="BackgroundImageFix"></feFlood><feColorMatrix in="SourceAlpha" type="matrix" values="0 0 0 0 0 0 0 0 0 0 0 0 0 0 0 0 0 0 127 0" result="hardAlpha"></feColorMatrix><feOffset dy="3.48"></feOffset><feGaussianBlur stdDeviation="1.74"></feGaussianBlur><feComposite in2="hardAlpha" operator="out"></feComposite><feColorMatrix type="matrix" values="0 0 0 0 0 0 0 0 0 0 0 0 0 0 0 0 0 0 0.15 0"></feColorMatrix><feBlend mode="normal" in2="BackgroundImageFix" result="effect1_dropShadow_788_8"></feBlend><feBlend mode="normal" in="SourceGraphic" in2="effect1_dropShadow_788_8" result="shape"></feBlend></filter><filter id="filter3_d_788_8" x="65.09" y="141.19" width="110.51" height="46.95" filterUnits="userSpaceOnUse" color-interpolation-filters="sRGB"><feFlood flood-opacity="0" result="BackgroundImageFix"></feFlood><feColorMatrix in="SourceAlpha" type="matrix" values="0 0 0 0 0 0 0 0 0 0 0 0 0 0 0 0 0 0 127 0" result="hardAlpha"></feColorMatrix><feOffset dy="3.48"></feOffset><feGaussianBlur stdDeviation="4.35"></feGaussianBlur><feComposite in2="hardAlpha" operator="out"></feComposite><feColorMatrix type="matrix" values="0 0 0 0 0.71 0 0 0 0 0.04 0 0 0 0 0.04 0 0 0 0.4 0"></feColorMatrix><feBlend mode="normal" in2="BackgroundImageFix" result="effect1_dropShadow_788_8"></feBlend><feBlend mode="normal" in="SourceGraphic" in2="effect1_dropShadow_788_8" result="shape"></feBlend></filter><linearGradient id="paint0_linear_788_8" x1="131.67" y1="0" x2="131.67" y2="216" gradientUnits="userSpaceOnUse"><stop stop-color="#FCD7D8"></stop><stop offset="1" stop-color="#F6B9BA"></stop></linearGradient><linearGradient id="paint1_linear_788_8" x1="119.84" y1="20.48" x2="119.84" y2="166.78" gradientUnits="userSpaceOnUse"><stop stop-color="#FF5B62"></stop><stop offset="1" stop-color="#BF1920"></stop></linearGradient><linearGradient id="paint2_linear_788_8" x1="119.78" y1="91.66" x2="119.78" y2="106.69" gradientUnits="userSpaceOnUse"><stop stop-color="#FFCDCF"></stop><stop offset="1" stop-color="white"></stop></linearGradient><linearGradient id="paint3_linear_788_8" x1="119.82" y1="137.52" x2="119.82" y2="196.04" gradientUnits="userSpaceOnUse"><stop stop-color="#FFCDCF"></stop><stop offset="1" stop-color="white"></stop></linearGradient><linearGradient id="paint4_linear_788_8" x1="120.35" y1="151.64" x2="120.35" y2="163.75" gradientUnits="userSpaceOnUse"><stop stop-color="#FF5B62"></stop><stop offset="1" stop-color="#BF1920"></stop></linearGradient></defs></svg>