<svg viewBox="0 0 225 231" fill="none" xmlns="http://www.w3.org/2000/svg"><circle cx="108.35" cy="108.35" r="108.35" fill="url(#paint0_linear_788_51)"></circle><g filter="url(#filter0_d_788_51)"><rect x="29.89" y="16.81" width="159.72" height="190.54" rx="6.73" fill="url(#paint1_linear_788_51)"></rect></g><g filter="url(#filter1_d_788_51)"><path d="M156.46 94.34C125.27 94.34 99.94 119.67 99.94 150.86C99.94 182.05 125.27 207.38 156.46 207.38C187.65 207.38 212.98 182.05 212.98 150.86C212.98 119.67 187.65 94.34 156.46 94.34Z" fill="url(#paint2_linear_788_51)"></path></g><g filter="url(#filter2_d_788_51)"><path d="M137.03 203.94C143.09 206.16 149.63 207.37 156.46 207.37C164.44 207.37 172.04 205.71 178.92 202.72C172.04 205.72 164.44 207.38 156.46 207.38C149.63 207.38 143.09 206.16 137.03 203.94ZM100.1 155.2C101.78 177.19 116.07 195.69 135.75 203.46C116.06 195.7 101.78 177.21 100.1 155.2ZM212.09 160.92C208.7 179.74 196 195.32 178.92 202.72C195.99 195.31 208.7 179.73 212.09 160.92ZM137.68 160.92L136.06 172.91L127.66 190.1C126.57 189.31 125.55 188.47 124.54 187.6L125.36 171.11L122.73 166.02V155.53L125.16 152.53L137.68 160.92ZM185.82 112.02C191.32 116.2 195.93 121.5 199.26 127.61L195.83 134.58H192.19L193.2 141.77L188.96 145.37V151.67L187.14 152.87L183.31 146.54L179.68 147.44L178.07 152.53L176.44 149.84L174.02 144.44L171.2 143.24L170.19 147.73L167.37 149.52L161.31 142.33L165.55 151.62L163.33 163.9L159.49 180.41L156.26 178.6L153.43 156.14H146.97L145.56 146.25L149.8 138.16L159.49 139.06L159.09 136.07L153.83 131.87L149.19 135.77L147.78 133.08L151.41 127.98L160.09 123.19L154.44 118.4L161.31 115.7L167.35 117.5L185.82 112.02ZM198.24 167.83L200.66 167.54L201.48 169.43C200.07 172.86 198.24 176.12 196.09 179.12L195.83 178.91L189.97 180.11V173.22L196.43 166.63L198.24 167.83ZM202.3 162.73L201.89 164.52L196.84 161.53L197.04 158.83L202.3 162.73ZM193.4 156.12L191.79 161.53L188.96 160.92L191.99 154.03L193.4 156.12ZM212.55 157.87C212.42 158.89 212.27 159.91 212.09 160.92C212.27 159.91 212.42 158.89 212.55 157.87ZM212.97 151.67C212.94 153.76 212.8 155.83 212.55 157.87C212.8 155.83 212.94 153.76 212.97 151.67ZM100.1 146.51C99.99 147.94 99.94 149.39 99.94 150.85C99.94 152.31 99.99 153.76 100.1 155.2C99.99 153.76 99.94 152.32 99.94 150.86C99.94 149.4 99.99 147.95 100.1 146.51ZM121.32 127.37L124.96 123.77L131.01 127.37L120.71 139.67H116.07L115.87 144.16L120.92 149.25L121.12 153.74L112.03 145.95L109.28 138.71C111.19 131.27 114.82 124.53 119.71 118.92L121.32 127.37ZM212.89 147.73C212.95 148.77 212.98 149.81 212.98 150.86C212.98 151.13 212.97 151.4 212.97 151.67C212.97 151.4 212.98 151.12 212.98 150.85C212.98 149.8 212.95 148.76 212.89 147.73ZM168.68 95.67C193.04 101.04 211.5 122.1 212.89 147.73C211.5 122.14 193.02 101.05 168.68 95.67ZM143.47 95.84C119.9 101.4 101.99 121.74 100.1 146.51C101.99 121.7 119.88 101.39 143.47 95.84ZM143.33 110.28L140.51 118.08L133.03 122.58L128.39 111.78L131.82 109.08L143.33 110.28ZM144.23 95.67C148.17 94.8 152.26 94.34 156.46 94.34C160.66 94.34 164.75 94.8 168.68 95.67C164.75 94.8 160.66 94.34 156.46 94.34C152.26 94.34 148.17 94.8 144.23 95.67Z" fill="url(#paint3_linear_788_51)"></path></g><g filter="url(#filter3_d_788_51)"><rect x="42.03" y="46.7" width="74.72" height="13.08" rx="3.26" fill="url(#paint4_linear_788_51)"></rect></g><g filter="url(#filter4_d_788_51)"><rect x="42.03" y="76.59" width="66.32" height="13.08" rx="3.26" fill="url(#paint5_linear_788_51)"></rect></g><defs><filter id="filter0_d_788_51" x="13" y="6.68" width="193.5" height="224.32" filterUnits="userSpaceOnUse" color-interpolation-filters="sRGB"><feFlood flood-opacity="0" result="BackgroundImageFix"></feFlood><feColorMatrix in="SourceAlpha" type="matrix" values="0 0 0 0 0 0 0 0 0 0 0 0 0 0 0 0 0 0 127 0" result="hardAlpha"></feColorMatrix><feOffset dy="3.37"></feOffset><feGaussianBlur stdDeviation="4.21"></feGaussianBlur><feComposite in2="hardAlpha" operator="out"></feComposite><feColorMatrix type="matrix" values="0 0 0 0 0.71 0 0 0 0 0.04 0 0 0 0 0.04 0 0 0 0.4 0"></feColorMatrix><feBlend mode="normal" in2="BackgroundImageFix" result="effect1_dropShadow_788_51"></feBlend><feBlend mode="normal" in="SourceGraphic" in2="effect1_dropShadow_788_51" result="shape"></feBlend></filter><filter id="filter1_d_788_51" x="93.18" y="94.34" width="126.56" height="126.56" filterUnits="userSpaceOnUse" color-interpolation-filters="sRGB"><feFlood flood-opacity="0" result="BackgroundImageFix"></feFlood><feColorMatrix in="SourceAlpha" type="matrix" values="0 0 0 0 0 0 0 0 0 0 0 0 0 0 0 0 0 0 127 0" result="hardAlpha"></feColorMatrix><feOffset dy="3.37"></feOffset><feGaussianBlur stdDeviation="1.68"></feGaussianBlur><feComposite in2="hardAlpha" operator="out"></feComposite><feColorMatrix type="matrix" values="0 0 0 0 0 0 0 0 0 0 0 0 0 0 0 0 0 0 0.15 0"></feColorMatrix><feBlend mode="normal" in2="BackgroundImageFix" result="effect1_dropShadow_788_51"></feBlend><feBlend mode="normal" in="SourceGraphic" in2="effect1_dropShadow_788_51" result="shape"></feBlend></filter><filter id="filter2_d_788_51" x="88.12" y="89.27" width="136.69" height="136.69" filterUnits="userSpaceOnUse" color-interpolation-filters="sRGB"><feFlood flood-opacity="0" result="BackgroundImageFix"></feFlood><feColorMatrix in="SourceAlpha" type="matrix" values="0 0 0 0 0 0 0 0 0 0 0 0 0 0 0 0 0 0 127 0" result="hardAlpha"></feColorMatrix><feOffset dy="3.37"></feOffset><feGaussianBlur stdDeviation="2.95"></feGaussianBlur><feComposite in2="hardAlpha" operator="out"></feComposite><feColorMatrix type="matrix" values="0 0 0 0 0.71 0 0 0 0 0.04 0 0 0 0 0.04 0 0 0 0.24 0"></feColorMatrix><feBlend mode="normal" in2="BackgroundImageFix" result="effect1_dropShadow_788_51"></feBlend><feBlend mode="normal" in="SourceGraphic" in2="effect1_dropShadow_788_51" result="shape"></feBlend></filter><filter id="filter3_d_788_51" x="35.27" y="46.7" width="88.23" height="26.59" filterUnits="userSpaceOnUse" color-interpolation-filters="sRGB"><feFlood flood-opacity="0" result="BackgroundImageFix"></feFlood><feColorMatrix in="SourceAlpha" type="matrix" values="0 0 0 0 0 0 0 0 0 0 0 0 0 0 0 0 0 0 127 0" result="hardAlpha"></feColorMatrix><feOffset dy="3.37"></feOffset><feGaussianBlur stdDeviation="1.68"></feGaussianBlur><feComposite in2="hardAlpha" operator="out"></feComposite><feColorMatrix type="matrix" values="0 0 0 0 0 0 0 0 0 0 0 0 0 0 0 0 0 0 0.15 0"></feColorMatrix><feBlend mode="normal" in2="BackgroundImageFix" result="effect1_dropShadow_788_51"></feBlend><feBlend mode="normal" in="SourceGraphic" in2="effect1_dropShadow_788_51" result="shape"></feBlend></filter><filter id="filter4_d_788_51" x="35.27" y="76.59" width="79.83" height="26.59" filterUnits="userSpaceOnUse" color-interpolation-filters="sRGB"><feFlood flood-opacity="0" result="BackgroundImageFix"></feFlood><feColorMatrix in="SourceAlpha" type="matrix" values="0 0 0 0 0 0 0 0 0 0 0 0 0 0 0 0 0 0 127 0" result="hardAlpha"></feColorMatrix><feOffset dy="3.37"></feOffset><feGaussianBlur stdDeviation="1.68"></feGaussianBlur><feComposite in2="hardAlpha" operator="out"></feComposite><feColorMatrix type="matrix" values="0 0 0 0 0 0 0 0 0 0 0 0 0 0 0 0 0 0 0.15 0"></feColorMatrix><feBlend mode="normal" in2="BackgroundImageFix" result="effect1_dropShadow_788_51"></feBlend><feBlend mode="normal" in="SourceGraphic" in2="effect1_dropShadow_788_51" result="shape"></feBlend></filter><linearGradient id="paint0_linear_788_51" x1="108.35" y1="0" x2="108.35" y2="216.69" gradientUnits="userSpaceOnUse"><stop stop-color="#FCD7D8"></stop><stop offset="1" stop-color="#F6B9BA"></stop></linearGradient><linearGradient id="paint1_linear_788_51" x1="109.75" y1="16.81" x2="109.75" y2="207.35" gradientUnits="userSpaceOnUse"><stop stop-color="#FF5B62"></stop><stop offset="1" stop-color="#BF1920"></stop></linearGradient><linearGradient id="paint2_linear_788_51" x1="156.46" y1="94.34" x2="156.46" y2="207.38" gradientUnits="userSpaceOnUse"><stop stop-color="#FFB2B5"></stop><stop offset="1" stop-color="white"></stop></linearGradient><linearGradient id="paint3_linear_788_51" x1="156.46" y1="94.34" x2="156.46" y2="207.38" gradientUnits="userSpaceOnUse"><stop stop-color="#FF5B62"></stop><stop offset="1" stop-color="#BF1920"></stop></linearGradient><linearGradient id="paint4_linear_788_51" x1="79.39" y1="46.7" x2="79.39" y2="59.78" gradientUnits="userSpaceOnUse"><stop stop-color="#FFB2B5"></stop><stop offset="1" stop-color="white"></stop></linearGradient><linearGradient id="paint5_linear_788_51" x1="75.19" y1="76.59" x2="75.19" y2="89.67" gradientUnits="userSpaceOnUse"><stop stop-color="#FFB2B5"></stop><stop offset="1" stop-color="white"></stop></linearGradient></defs></svg>